<svg id="visual" viewBox="0 0 540 960" width="540" height="960" xmlns="http://www.w3.org/2000/svg" xmlns:xlink="http://www.w3.org/1999/xlink" version="1.1"><rect x="0" y="0" width="540" height="960" fill="#ffffff"></rect><defs><linearGradient id="grad1_0" x1="0%" y1="0%" x2="100%" y2="100%"><stop offset="30%" stop-color="#0068ff" stop-opacity="1"></stop><stop offset="70%" stop-color="#0068ff" stop-opacity="1"></stop></linearGradient></defs><defs><linearGradient id="grad1_1" x1="0%" y1="0%" x2="100%" y2="100%"><stop offset="30%" stop-color="#0068ff" stop-opacity="1"></stop><stop offset="70%" stop-color="#acb0ff" stop-opacity="1"></stop></linearGradient></defs><defs><linearGradient id="grad1_2" x1="0%" y1="0%" x2="100%" y2="100%"><stop offset="30%" stop-color="#ffffff" stop-opacity="1"></stop><stop offset="70%" stop-color="#acb0ff" stop-opacity="1"></stop></linearGradient></defs><defs><linearGradient id="grad2_0" x1="0%" y1="0%" x2="100%" y2="100%"><stop offset="30%" stop-color="#0068ff" stop-opacity="1"></stop><stop offset="70%" stop-color="#0068ff" stop-opacity="1"></stop></linearGradient></defs><defs><linearGradient id="grad2_1" x1="0%" y1="0%" x2="100%" y2="100%"><stop offset="30%" stop-color="#acb0ff" stop-opacity="1"></stop><stop offset="70%" stop-color="#0068ff" stop-opacity="1"></stop></linearGradient></defs><defs><linearGradient id="grad2_2" x1="0%" y1="0%" x2="100%" y2="100%"><stop offset="30%" stop-color="#acb0ff" stop-opacity="1"></stop><stop offset="70%" stop-color="#ffffff" stop-opacity="1"></stop></linearGradient></defs><g transform="translate(540, 0)"><path d="M0 297C-25.8 295 -51.7 293.1 -76.9 286.9C-102.1 280.7 -126.7 270.2 -146.5 253.7C-166.3 237.3 -181.3 214.7 -190.9 190.9C-200.5 167.1 -204.8 141.9 -208.7 120.5C-212.6 99.1 -216.2 81.3 -230.9 61.9C-245.5 42.4 -271.3 21.2 -297 0L0 0Z" fill="#d7d7ff"></path><path d="M0 198C-17.2 196.7 -34.4 195.4 -51.2 191.3C-68.1 187.1 -84.5 180.2 -97.7 169.2C-110.9 158.2 -120.9 143.2 -127.3 127.3C-133.7 111.4 -136.5 94.6 -139.1 80.3C-141.8 66 -144.1 54.2 -153.9 41.2C-163.7 28.3 -180.8 14.1 -198 0L0 0Z" fill="#778bff"></path><path d="M0 99C-8.6 98.3 -17.2 97.7 -25.6 95.6C-34 93.6 -42.2 90.1 -48.8 84.6C-55.4 79.1 -60.4 71.6 -63.6 63.6C-66.8 55.7 -68.3 47.3 -69.6 40.2C-70.9 33 -72.1 27.1 -77 20.6C-81.8 14.1 -90.4 7.1 -99 0L0 0Z" fill="#0068ff"></path></g><g transform="translate(0, 960)"><path d="M0 -297C23 -283.9 46.1 -270.7 70.9 -264.7C95.8 -258.6 122.4 -259.6 144.5 -250.3C166.6 -241 184.1 -221.4 203.6 -203.6C223.2 -185.9 244.7 -169.9 257.2 -148.5C269.7 -127.1 273.1 -100.2 278.2 -74.5C283.3 -48.9 290.2 -24.4 297 0L0 0Z" fill="#d7d7ff"></path><path d="M0 -198C15.4 -189.2 30.7 -180.5 47.3 -176.4C63.8 -172.4 81.6 -173.1 96.3 -166.9C111.1 -160.7 122.7 -147.6 135.8 -135.8C148.8 -123.9 163.2 -113.3 171.5 -99C179.8 -84.7 182 -66.8 185.5 -49.7C188.9 -32.6 193.4 -16.3 198 0L0 0Z" fill="#778bff"></path><path d="M0 -99C7.7 -94.6 15.4 -90.2 23.6 -88.2C31.9 -86.2 40.8 -86.5 48.2 -83.4C55.5 -80.3 61.4 -73.8 67.9 -67.9C74.4 -62 81.6 -56.6 85.7 -49.5C89.9 -42.4 91 -33.4 92.7 -24.8C94.4 -16.3 96.7 -8.1 99 0L0 0Z" fill="#0068ff"></path></g></svg>